/* XPM */
static char * exit_xpm[] = {
"50 50 815 2",
"  	c #4D9262",
". 	c #4C9262",
"+ 	c #4C9162",
"@ 	c #57956A",
"# 	c #659975",
"$ 	c #6D9C7A",
"% 	c #749F7E",
"& 	c #7BA382",
"* 	c #81A585",
"= 	c #84A686",
"- 	c #87A486",
"; 	c #88A286",
"> 	c #88A185",
", 	c #89A086",
"' 	c #8AA085",
") 	c #8AA186",
"! 	c #8BA186",
"~ 	c #879F84",
"{ 	c #839D82",
"] 	c #7D9A7F",
"^ 	c #76967C",
"/ 	c #709379",
"( 	c #699175",
"_ 	c #628F72",
": 	c #5B8E6F",
"< 	c #578E6C",
"[ 	c #519067",
"} 	c #6C9B7A",
"| 	c #8EA997",
"1 	c #9FB2A4",
"2 	c #AFBBAE",
"3 	c #BBC4B5",
"4 	c #C5C9BA",
"5 	c #CCCDBE",
"6 	c #CFCCBE",
"7 	c #D0C9BE",
"8 	c #D1C6BC",
"9 	c #D1C5BC",
"0 	c #D2C6BC",
"a 	c #D2C6BD",
"b 	c #CEC3BA",
"c 	c #C6BDB6",
"d 	c #BBB4B0",
"e 	c #ADABA9",
"f 	c #A0A1A1",
"g 	c #929799",
"h 	c #848F91",
"i 	c #778989",
"j 	c #6B8781",
"k 	c #5C8C72",
"l 	c #7BA186",
"m 	c #A8B6AD",
"n 	c #BFC3BF",
"o 	c #D0CEC9",
"p 	c #DFD8D2",
"q 	c #EAE0D8",
"r 	c #F1E5DB",
"s 	c #F3E5DC",
"t 	c #F3E3DA",
"u 	c #F1E0D9",
"v 	c #EEDFD7",
"w 	c #ECDDD5",
"x 	c #EBDCD4",
"y 	c #EADBD3",
"z 	c #EFDFD7",
"A 	c #F0E0D8",
"B 	c #EEDED7",
"C 	c #E6D8D3",
"D 	c #D9CECC",
"E 	c #CAC2C4",
"F 	c #BCB6BC",
"G 	c #ABA7B1",
"H 	c #9C99A7",
"I 	c #8C8B9C",
"J 	c #7C8690",
"K 	c #668B7B",
"L 	c #86A68D",
"M 	c #BAC0B9",
"N 	c #D1CECB",
"O 	c #E1D9D5",
"P 	c #ECE1DC",
"Q 	c #F6E9E1",
"R 	c #FBEEE5",
"S 	c #FEEFE6",
"T 	c #FDEEE5",
"U 	c #FCEDE4",
"V 	c #F6E9E0",
"W 	c #EEE4DA",
"X 	c #E7DFD4",
"Y 	c #E2DCCF",
"Z 	c #DFD9CD",
"` 	c #DFD9CC",
" .	c #E1DBCE",
"..	c #E6DED2",
"+.	c #EEE3D9",
"@.	c #F5E9DF",
"#.	c #F7EAE1",
"$.	c #F2E6DF",
"%.	c #E8DED9",
"&.	c #DBD4D2",
"*.	c #CCC7C9",
"=.	c #BCB8BF",
"-.	c #ACA7B4",
";.	c #9B98A8",
">.	c #8A909B",
",.	c #6E8F81",
"'.	c #90AC92",
").	c #C9CBC1",
"!.	c #E0D9D4",
"~.	c #F4E7E0",
"{.	c #FAECE4",
"].	c #FEF0E7",
"^.	c #FFF2E9",
"/.	c #FFF1E8",
"(.	c #FBEEE4",
"_.	c #F1E7DC",
":.	c #E2DDD0",
"<.	c #D0D2C2",
"[.	c #C3CAB8",
"}.	c #BDC5B3",
"|.	c #BCC5B2",
"1.	c #C2C8B6",
"2.	c #CED0C0",
"3.	c #DFDBCE",
"4.	c #EFE6DB",
"5.	c #F8ECE2",
"6.	c #F9ECE4",
"7.	c #F3E7E1",
"8.	c #E9E0DB",
"9.	c #DCD5D3",
"0.	c #CDC7C9",
"a.	c #BCB7BF",
"b.	c #ABA9B4",
"c.	c #989EA5",
"d.	c #789787",
"e.	c #98B197",
"f.	c #D5D3C7",
"g.	c #ECE2DA",
"h.	c #F5E8E1",
"i.	c #F9ECE3",
"j.	c #FFF0E7",
"k.	c #FEF1E8",
"l.	c #E9E1D4",
"m.	c #CFD0C0",
"n.	c #B0BEA9",
"o.	c #97B096",
"p.	c #88A98B",
"q.	c #87A98B",
"r.	c #93B093",
"s.	c #ACBDA6",
"t.	c #CBCEBD",
"u.	c #E5DFD2",
"v.	c #F6EAE0",
"w.	c #FCEEE5",
"x.	c #FAEDE5",
"y.	c #F4E8E1",
"z.	c #EAE0DB",
"A.	c #DDD4D3",
"B.	c #BBBABF",
"C.	c #A8AEB0",
"D.	c #83A08F",
"E.	c #9EB499",
"F.	c #DDD9CC",
"G.	c #F3E8DF",
"H.	c #FCEDE5",
"I.	c #FEF0E8",
"J.	c #F6EBE0",
"K.	c #BFC6B4",
"L.	c #93AD93",
"M.	c #669B75",
"N.	c #489462",
"O.	c #449760",
"P.	c #60A270",
"Q.	c #8DB48E",
"R.	c #BAC9AF",
"S.	c #DEDCCC",
"T.	c #F4E9DE",
"U.	c #FDEFE6",
"V.	c #FBEDE5",
"W.	c #F4E7E1",
"X.	c #E9DEDA",
"Y.	c #CBC9C8",
"Z.	c #B8BCBA",
"`.	c #91A998",
" +	c #A0B59B",
".+	c #E0DCCE",
"++	c #F7EBE1",
"@+	c #FFF2EA",
"#+	c #F7EAE0",
"$+	c #E0DBCD",
"%+	c #B9C2B0",
"&+	c #85A689",
"*+	c #479363",
"=+	c #0F9045",
"-+	c #009A41",
";+	c #3EA959",
">+	c #7DBB80",
",+	c #B2CEA9",
"'+	c #DBDFCA",
")+	c #F5EBDE",
"!+	c #FBECE4",
"~+	c #E8DEDA",
"{+	c #DAD5D1",
"]+	c #CBCAC6",
"^+	c #A0B3A3",
"/+	c #4B9162",
"(+	c #9FB69B",
"_+	c #E0DDCE",
":+	c #F7ECE1",
"<+	c #FFF1E9",
"[+	c #DFDACD",
"}+	c #B8C1AE",
"|+	c #82A587",
"1+	c #42965F",
"2+	c #09993D",
"3+	c #00AA36",
"4+	c #39BC52",
"5+	c #7ACB7C",
"6+	c #B1D9A7",
"7+	c #DBE4C9",
"8+	c #F5ECDE",
"9+	c #FDEFE5",
"0+	c #F8EBE3",
"a+	c #E9E0D9",
"b+	c #DDD7D1",
"c+	c #B0BCAC",
"d+	c #9EB59B",
"e+	c #F7EBE0",
"f+	c #FBEDE4",
"g+	c #FAEDE3",
"h+	c #F1E7DB",
"i+	c #DAD8C9",
"j+	c #B4C1AB",
"k+	c #81AA85",
"l+	c #449F5F",
"m+	c #0FA83F",
"n+	c #00BB37",
"o+	c #3BCD51",
"p+	c #78DA7A",
"q+	c #AEE2A3",
"r+	c #D6E9C4",
"s+	c #EFEDD9",
"t+	c #F9EFE4",
"u+	c #FBEFE7",
"v+	c #FAEDE7",
"w+	c #F9EDE6",
"x+	c #F8EBE4",
"y+	c #F3E7E0",
"z+	c #EBE1DC",
"A+	c #BCC3B5",
"B+	c #F2E7DD",
"C+	c #EDE4D8",
"D+	c #EAE2D6",
"E+	c #E9E1D5",
"F+	c #CBD1BD",
"G+	c #A8C0A2",
"H+	c #78B17F",
"I+	c #41AD5C",
"J+	c #10B740",
"K+	c #00C838",
"L+	c #39D84D",
"M+	c #71E272",
"N+	c #A2E797",
"O+	c #C7EBB6",
"P+	c #DEECCC",
"Q+	c #E8EBDA",
"R+	c #EBE9E2",
"S+	c #EBE7E7",
"T+	c #EDE7EA",
"U+	c #F2E9EA",
"V+	c #F7ECE8",
"W+	c #F7EBE5",
"X+	c #F1E5DF",
"Y+	c #C3C8BA",
"Z+	c #9FB59B",
"`+	c #DFDBCD",
" @	c #EEE4D9",
".@	c #E1DCCF",
"+@	c #D3D3C4",
"@@	c #CBCDBD",
"#@	c #C9CBBB",
"$@	c #C7CBBA",
"%@	c #C1C9B5",
"&@	c #AFC5A7",
"*@	c #90BF8F",
"=@	c #67BB71",
"-@	c #36BD54",
";@	c #0BC73D",
">@	c #00D337",
",@	c #2FDE47",
"'@	c #60E563",
")@	c #8BE882",
"!@	c #ABEA9D",
"~@	c #BFE9B5",
"{@	c #C8E6C8",
"]@	c #CAE0D9",
"^@	c #CCDCE6",
"/@	c #D3DCED",
"(@	c #E1E1EE",
"_@	c #EEE8EC",
":@	c #F5EBE7",
"<@	c #F2E6E0",
"[@	c #C5C9BB",
"}@	c #4E9262",
"|@	c #4F9362",
"1@	c #509361",
"2@	c #509461",
"3@	c #4E9362",
"4@	c #DEDBCD",
"5@	c #ECE4D9",
"6@	c #E3DED0",
"7@	c #CCCEBE",
"8@	c #B1BEA9",
"9@	c #9FB39C",
"0@	c #98AF97",
"a@	c #97AF96",
"b@	c #93B392",
"c@	c #85B887",
"d@	c #6DBF75",
"e@	c #4DC65F",
"f@	c #28CD4A",
"g@	c #06D53B",
"h@	c #00DB38",
"i@	c #22E041",
"j@	c #48E452",
"k@	c #69E667",
"l@	c #82E67F",
"m@	c #92E499",
"n@	c #99DEB6",
"o@	c #9AD5D1",
"p@	c #A0CEE6",
"q@	c #B1CEF1",
"r@	c #CAD7F2",
"s@	c #E2E2EF",
"t@	c #F1E8E8",
"u@	c #F1E6E1",
"v@	c #519461",
"w@	c #529561",
"x@	c #549661",
"y@	c #539661",
"z@	c #A0B69B",
"A@	c #DEDACC",
"B@	c #DAD7C9",
"C@	c #B8C2AF",
"D@	c #8EAB8F",
"E@	c #6A9C78",
"F@	c #5C986E",
"G@	c #5B9C6D",
"H@	c #5AA56C",
"I@	c #52B265",
"J@	c #42C15A",
"K@	c #2ECF4C",
"L@	c #15D940",
"M@	c #02DE39",
"N@	c #00E138",
"O@	c #11E23E",
"P@	c #2AE34A",
"Q@	c #40E359",
"R@	c #50E16F",
"S@	c #5BDD8B",
"T@	c #5ED4AE",
"U@	c #60CACF",
"V@	c #6DC1E7",
"W@	c #8DC2F4",
"X@	c #B5CEF6",
"Y@	c #D8DCF1",
"Z@	c #EDE6E9",
"`@	c #C6C9BB",
" #	c #559760",
".#	c #579860",
"+#	c #59995F",
"@#	c #599960",
"##	c #559660",
"$#	c #DFDACC",
"%#	c #E8E1D4",
"&#	c #D5D4C5",
"*#	c #ADBBA6",
"=#	c #75A07F",
"-#	c #3B915C",
";#	c #19904A",
">#	c #199A48",
",#	c #1EA84A",
"'#	c #1CB847",
")#	c #14C943",
"!#	c #0CD63E",
"~#	c #03DF39",
"{#	c #01E434",
"]#	c #01E432",
"^#	c #03E33D",
"/#	c #0BE151",
"(#	c #14DE68",
"_#	c #1DDA81",
":#	c #21D49D",
"<#	c #20CABB",
"[#	c #21BFD7",
"}#	c #3FB7EC",
"|#	c #73BAF6",
"1#	c #A9C8F7",
"2#	c #D2D9F1",
"3#	c #EBE5E9",
"4#	c #F0E6E1",
"5#	c #5A9A5F",
"6#	c #5D9C5E",
"7#	c #5F9D5E",
"8#	c #609D5E",
"9#	c #5E9C5E",
"0#	c #5C9B5F",
"a#	c #519561",
"b#	c #A9B9A4",
"c#	c #6D9E79",
"d#	c #289251",
"e#	c #009938",
"f#	c #00AA34",
"g#	c #00B936",
"h#	c #00C637",
"i#	c #00DC38",
"j#	c #00E236",
"k#	c #02E52F",
"l#	c #01E52D",
"m#	c #00E340",
"n#	c #00DF63",
"o#	c #00D886",
"p#	c #00D0A5",
"q#	c #00C8BE",
"r#	c #00BFD3",
"s#	c #00B6E6",
"t#	c #2BB2F2",
"u#	c #6BB7F8",
"v#	c #A5C7F7",
"w#	c #D0D9F1",
"x#	c #EAE5E9",
"y#	c #639F5D",
"z#	c #65A15C",
"A#	c #66A15C",
"B#	c #64A05D",
"C#	c #619E5D",
"D#	c #589860",
"E#	c #539561",
"F#	c #E8E1D5",
"G#	c #AEBCA7",
"H#	c #78A480",
"I#	c #409D5D",
"J#	c #25AA49",
"K#	c #25BD45",
"L#	c #26CC44",
"M#	c #22D642",
"N#	c #1ADC3E",
"O#	c #10E03C",
"P#	c #05E23A",
"Q#	c #01E436",
"R#	c #00E43B",
"S#	c #06E154",
"T#	c #13DB7B",
"U#	c #20D2A3",
"V#	c #29C8C4",
"W#	c #2EBEDA",
"X#	c #2DB7E9",
"Y#	c #2CB1F3",
"Z#	c #45B1F8",
"`#	c #76B9F9",
" $	c #AAC9F6",
".$	c #D3DAF0",
"+$	c #F0E5E1",
"@$	c #67A35C",
"#$	c #6BA55B",
"$$	c #6BA55A",
"%$	c #69A45B",
"&$	c #EBE2D6",
"*$	c #DBD8CA",
"=$	c #BBC3B1",
"-$	c #92B092",
";$	c #72AD7A",
">$	c #63BA6F",
",$	c #63CC6C",
"'$	c #61D968",
")$	c #58E160",
"!$	c #48E353",
"~$	c #31E348",
"{$	c #17E245",
"]$	c #03E14C",
"^$	c #00E05C",
"/$	c #19DD76",
"($	c #34D798",
"_$	c #4BCEBB",
":$	c #5DC5D8",
"<$	c #68BEEB",
"[$	c #6AB9F6",
"}$	c #6AB6F9",
"|$	c #75B8FA",
"1$	c #91C0F8",
"2$	c #B8CFF4",
"3$	c #D9DDEF",
"4$	c #F0E4E0",
"5$	c #C4C7B9",
"6$	c #66A25C",
"7$	c #6FA859",
"8$	c #6DA65A",
"9$	c #69A35B",
"0$	c #569760",
"a$	c #DEDBCC",
"b$	c #EDE5D9",
"c$	c #E4DED1",
"d$	c #CFCFC0",
"e$	c #B6C3AD",
"f$	c #A5C29F",
"g$	c #9FCC99",
"h$	c #9ED997",
"i$	c #99E391",
"j$	c #8BE783",
"k$	c #72E76E",
"l$	c #50E558",
"m$	c #2AE255",
"n$	c #07DE68",
"o$	c #02D983",
"p$	c #2AD49E",
"q$	c #51D0B8",
"r$	c #72CCCF",
"s$	c #8BC9E3",
"t$	c #9BC7F0",
"u$	c #A1C6F6",
"v$	c #A2C5F8",
"w$	c #A6C7F7",
"x$	c #B5CEF4",
"y$	c #CDD8F1",
"z$	c #E4E3ED",
"A$	c #F1E8E7",
"B$	c #EEE2DE",
"C$	c #C1C3B8",
"D$	c #68A35B",
"E$	c #6EA759",
"F$	c #71AA58",
"G$	c #72AA58",
"H$	c #70A859",
"I$	c #9EB69A",
"J$	c #DEDCCD",
"K$	c #F1E7DD",
"L$	c #EFE5DA",
"M$	c #E3DDD1",
"N$	c #D7D6C7",
"O$	c #D0D6C1",
"P$	c #CDDCBF",
"Q$	c #CCE3BD",
"R$	c #C5E8B5",
"S$	c #B3EAA4",
"T$	c #93E989",
"U$	c #69E56D",
"V$	c #39E069",
"W$	c #0DD884",
"X$	c #04D0A6",
"Y$	c #38CAC2",
"Z$	c #68C8D4",
"`$	c #91CCE0",
" %	c #B1D1E9",
".%	c #C5D6EF",
"+%	c #CDD8F2",
"@%	c #CFD8F2",
"#%	c #D7DCEF",
"$%	c #F0E9EB",
"%%	c #F5E9E6",
"&%	c #EDE0DC",
"*%	c #BDC0B5",
"=%	c #6AA45B",
"-%	c #73AB58",
";%	c #74AB57",
">%	c #71A958",
",%	c #6CA65A",
"'%	c #9FB59A",
")%	c #F4E9DF",
"!%	c #F8EBE1",
"~%	c #EFE6DA",
"{%	c #EDE6D8",
"]%	c #EDE8D8",
"^%	c #ECEAD7",
"/%	c #E3ECCF",
"(%	c #CEEBBD",
"_%	c #AAE8A1",
":%	c #7AE386",
"<%	c #43DD83",
"[%	c #12D29F",
"}%	c #04C7C2",
"|%	c #42C0DB",
"1%	c #78C2E9",
"2%	c #A7CCED",
"3%	c #CBD9ED",
"4%	c #E2E2EC",
"5%	c #ECE6EC",
"6%	c #EEE7EC",
"7%	c #EEE7EB",
"8%	c #EFE8EB",
"9%	c #F4EBEA",
"0%	c #F5E9E4",
"a%	c #EADDDA",
"b%	c #B9BDB2",
"c%	c #70A959",
"d%	c #74AC57",
"e%	c #A0B49A",
"f%	c #E0DACD",
"g%	c #FCEFE4",
"h%	c #F2EDDE",
"i%	c #DCEACF",
"j%	c #B6E5B9",
"k%	c #83DDA5",
"l%	c #47D5A3",
"m%	c #13CAB9",
"n%	c #01BED6",
"o%	c #44B8EB",
"p%	c #7FBEF4",
"q%	c #B1CDF4",
"r%	c #D8DDEF",
"s%	c #F1E9EA",
"t%	c #FBEEE8",
"u%	c #FDF0E8",
"v%	c #FCEFE7",
"w%	c #FBEEE7",
"x%	c #FAEDE6",
"y%	c #F1E4DE",
"z%	c #E3D8D4",
"A%	c #B0B8AD",
"B%	c #A2B299",
"C%	c #E2D8CD",
"D%	c #F9EBE1",
"E%	c #F7EEE4",
"F%	c #E0E8DB",
"G%	c #B9DECF",
"H%	c #85D4C5",
"I%	c #47CAC6",
"J%	c #10BFD4",
"K%	c #43B3F4",
"L%	c #7FBBF9",
"M%	c #B4CCF6",
"N%	c #DCDEF0",
"O%	c #F5EBEA",
"P%	c #FEF1E7",
"Q%	c #FFF2E7",
"R%	c #FFF1E7",
"S%	c #E5DCD8",
"T%	c #D5CFCC",
"U%	c #A6B2A5",
"V%	c #A2AF99",
"W%	c #E1D6CD",
"X%	c #F8E9E0",
"Y%	c #FFF0E8",
"Z%	c #F7EDE7",
"`%	c #E1E4E4",
" &	c #BBD8E1",
".&	c #89CBDE",
"+&	c #52C0E1",
"@&	c #24B7E9",
"#&	c #1BB1F2",
"$&	c #4CB1F8",
"%&	c #83BCF9",
"&&	c #B5CDF5",
"*&	c #DCDEEF",
"=&	c #FFF0E6",
"-&	c #F2E5DF",
";&	c #E6DDD8",
">&	c #D9D3D0",
",&	c #C5C5C1",
"'&	c #99AD9D",
")&	c #A0AC98",
"!&	c #DED2CB",
"~&	c #F4E5DE",
"{&	c #FCEEE6",
"]&	c #FEEFE7",
"^&	c #F6ECE8",
"/&	c #E3E4EA",
"(&	c #C2D6ED",
"_&	c #99C8EF",
":&	c #72BDF2",
"<&	c #57B6F5",
"[&	c #55B4F8",
"}&	c #6DB7F9",
"|&	c #94C1F8",
"1&	c #BDD1F3",
"2&	c #DFE0EE",
"3&	c #F4EAE9",
"4&	c #E7DDD9",
"5&	c #D9D2D1",
"6&	c #C9C7C6",
"7&	c #B5B9B8",
"8&	c #8DA695",
"9&	c #5E9D5E",
"0&	c #9BAA95",
"a&	c #D6CCC6",
"b&	c #ECDFD9",
"c&	c #F4E8E2",
"d&	c #F9EDE9",
"e&	c #EAE6EC",
"f&	c #D2DBF0",
"g&	c #B6CFF4",
"h&	c #9FC6F8",
"i&	c #93C2F9",
"j&	c #92C1F9",
"k&	c #9DC5F8",
"l&	c #B3CEF6",
"m&	c #CEDAF2",
"n&	c #E7E5ED",
"o&	c #F6EBE9",
"p&	c #FBEDE6",
"q&	c #F9EBE3",
"r&	c #DAD2D2",
"s&	c #CBC4C8",
"t&	c #B9B7BD",
"u&	c #A6ABAE",
"v&	c #819E8E",
"w&	c #91A791",
"x&	c #C9C5C0",
"y&	c #DFD6D3",
"z&	c #EBE1DB",
"A&	c #FCEFE9",
"B&	c #F2EAEC",
"C&	c #E4E3EF",
"D&	c #D4DCF2",
"E&	c #C9D6F4",
"F&	c #C4D4F5",
"G&	c #C3D4F4",
"H&	c #C8D7F3",
"I&	c #D3DCF1",
"J&	c #E2E3EF",
"K&	c #F0EAEC",
"L&	c #F8ECE8",
"M&	c #F1E6DF",
"N&	c #E6DDD9",
"O&	c #DAD2D1",
"P&	c #CAC4C8",
"Q&	c #BAB5BE",
"R&	c #A9A7B2",
"S&	c #979DA4",
"T&	c #779688",
"U&	c #6AA55B",
"V&	c #86A48C",
"W&	c #B8BDB7",
"X&	c #CFCDCA",
"Y&	c #DFD7D4",
"Z&	c #F5E9E0",
"`&	c #FBEDE3",
" *	c #FCEDE6",
".*	c #F7EAE6",
"+*	c #F0E7E8",
"@*	c #EAE4E9",
"#*	c #E6E2EA",
"$*	c #E3E0EB",
"%*	c #E3E0EA",
"&*	c #E5E1EA",
"**	c #E9E4E9",
"=*	c #F6EAE6",
"-*	c #F7EAE3",
";*	c #F1E5DE",
">*	c #E7DDD8",
",*	c #D9D3D1",
"'*	c #C9C5C7",
")*	c #AAA6B3",
"!*	c #9997A6",
"~*	c #888D9A",
"{*	c #6E8E81",
"]*	c #7AA185",
"^*	c #A6B4AA",
"/*	c #BCC1BB",
"(*	c #CDCDC7",
"_*	c #DDD7D0",
":*	c #E7DFD6",
"<*	c #EEE3D8",
"[*	c #F2E4DA",
"}*	c #F3E3D9",
"|*	c #F3E2D9",
"1*	c #F3E1D8",
"2*	c #F1DFD8",
"3*	c #F0DED8",
"4*	c #EFDED9",
"5*	c #EEDDD9",
"6*	c #EEDED9",
"7*	c #F0DFD9",
"8*	c #F2E0D8",
"9*	c #F3E0D8",
"0*	c #EFDED5",
"a*	c #E6D8D1",
"b*	c #D8D1CA",
"c*	c #C7C5C2",
"d*	c #B6B9B9",
"e*	c #A8AAB0",
"f*	c #979AA6",
"g*	c #898C9A",
"h*	c #7A868F",
"i*	c #658A7A",
"j*	c #6D9C7B",
"k*	c #8EA998",
"l*	c #A1B3A6",
"m*	c #B0BCB0",
"n*	c #BEC6B7",
"o*	c #C9CCBC",
"p*	c #D1D0C0",
"q*	c #D8CEBF",
"r*	c #DACBBD",
"s*	c #DDC8BC",
"t*	c #DEC7BA",
"u*	c #DDC6B9",
"v*	c #DEC6B9",
"w*	c #DEC7BB",
"x*	c #DAC6BA",
"y*	c #CFC2B6",
"z*	c #C1BDB2",
"A*	c #AEB5AB",
"B*	c #9DABA3",
"C*	c #8FA09B",
"D*	c #829493",
"E*	c #768A8A",
"F*	c #6C8681",
"G*	c #5C8B72",
"H*	c #6EA75A",
"I*	c #64A05C",
"J*	c #629F5D",
"K*	c #67A25C",
"L*	c #5A995F",
"M*	c #5B9B5F",
"N*	c #5D9B5E",
"                                                                                                  . ",
"                                                                                                . . ",
"                                                                                                . + ",
"                                                                                                . + ",
"                                                                                                . + ",
"                                                                                                . + ",
"                                                                                                . + ",
"                                                                                                . + ",
"                                                                                                . + ",
"                    @ # $ % & * = - ; > , ' ) ! ! ! ! ) ) ' ~ { ] ^ / ( _ : < [                 . + ",
"                    } | 1 2 3 4 5 6 7 8 9 8 8 0 a a a a a 8 b c d e f g h i j k                 . + ",
"                    l m n o p q r s s t u v w x y y x w z A B C D E F G H I J K                 . + ",
".                   L M N O P Q R S T U V W X Y Z `  ...+.@.#.$.%.&.*.=.-.;.>.,.                . + ",
".                   '.).!.P ~.{.].^./.(._.:.<.[.}.|.1.2.3.4.5.6.7.8.9.0.a.b.c.d.                . + ",
"+ .                 e.f.g.h.i.T j.^.k.5.l.m.n.o.p.q.r.s.t.u.v.w.x.y.z.A.0.B.C.D.                . + ",
"+ .                 E.F.G.H.S S j.^.I.J.Y K.L.M.N.O.P.Q.R.S.T.U.I.V.W.X.&.Y.Z.`.                . + ",
"+ .                  +.+++]./././.@+/.#+$+%+&+*+=+-+;+>+,+'+)+I.@+I.!+$.~+{+]+^+                . + ",
"/++ . . . .         (+_+:+]././.<+@+/.v.[+}+|+1+2+3+4+5+6+7+8+k.@+/.9+0+$.a+b+c+                  . ",
"/+/++ + + . .       d+.+e+w.w.f+f+(.g+h+i+j+k+l+m+n+o+p+q+r+s+t+u+u+v+w+x+y+z+A+                  . ",
"/++ + . . . .       d+$+@.#+B+C+D+D+E+.+F+G+H+I+J+K+L+M+N+O+P+Q+R+S+T+U+V+W+X+Y+                    ",
"+                   Z+`+_. @.@+@@@#@$@%@&@*@=@-@;@>@,@'@)@!@~@{@]@^@/@(@_@:@<@[@                    ",
"}@|@1@2@1@|@|@3@}@  Z+4@5@6@7@8@9@0@a@b@c@d@e@f@g@h@i@j@k@l@m@n@o@p@q@r@s@t@u@[@                    ",
"v@w@x@x@y@w@v@2@|@}@z@A@D+B@C@D@E@F@G@H@I@J@K@L@M@N@O@P@Q@R@S@T@U@V@W@X@Y@Z@u@`@                    ",
" #.#+#+#@#.###w@2@3@z@$#%#&#*#=#-#;#>#,#'#)#!#~#{#]#^#/#(#_#:#<#[#}#|#1#2#3#4#`@                    ",
"5#6#7#8#9#0#@# #a#|@z@A@%#+@b#c#d#e#f#g#h#>@i#j#k#l#m#n#o#p#q#r#s#t#u#v#w#x#4#`@                    ",
"7#y#z#A#B#C#0#D#E#1@z@$#F#&#G#H#I#J#K#L#M#N#O#P#Q#R#S#T#U#V#W#X#Y#Z#`# $.$3#+$`@                    ",
"y#@$#$$$%$z#8#5###2@z@4@&$*$=$-$;$>$,$'$)$!$~${$]$^$/$($_$:$<$[$}$|$1$2$3$Z@4$5$                    ",
"6$$$7$7$8$9$y#0#0$v@(+a$b$c$d$e$f$g$h$i$j$k$l$m$n$o$p$q$r$s$t$u$v$w$x$y$z$A$B$C$                    ",
"D$E$F$G$H$$$z#9#.#v@I$J$K$L$M$N$O$P$Q$R$S$T$U$V$W$X$Y$Z$`$ %.%+%@%w##%z$$%%%&%*%                    ",
"=%7$-%;%>%,%A#9#.#a#'%`+)%!%T.~%{%]%^%/%(%_%:%<%[%}%|%1%2%3%4%5%6%7%8%9%V+0%a%b%                    ",
"=%c%;%d%G$8$6$7#.#w@e%f%!%S U.w.w.9+g%h%i%j%k%l%m%n%o%p%q%r%s%t%u%v%w%x%x+y%z%A%                    ",
"=%c%;%d%G$8$6$7#.#w@B%C%D%/.^./.<+<+/.E%F%G%H%I%J%s#K%L%M%N%O%P%Q%R%9+0+X+S%T%U%                    ",
"=%H$;%d%G$8$6$7#.#w@V%W%X%].^.<+<+^.Y%Z%`% &.&+&@&#&$&%&&&*&O%P%Q%=&!+-&;&>&,&'&                    ",
"=%H$-%;%F$8$6$7#.#w@)&!&~&{&]&j.j.R%].^&/&(&_&:&<&[&}&|&1&2&3&U.S !+y+4&5&6&7&8&                    ",
"=%H$-%;%>%,%A#9&.#a#0&a&b&c&6.{&j.R%/.d&e&f&g&h&i&j&k&l&m&n&o&p&q&$.~+r&s&t&u&v&                    ",
"=%H$-%;%F$8$6$7#.#w@w&x&y&z&y+{.]&/.^.A&B&C&D&E&F&G&H&I&J&K&L&0+M&N&O&P&Q&R&S&T&                    ",
"U&c%;%d%G$8$6$7#.#w@V&W&X&Y&z&Z&`&T T  *.*+*@*#*$*%*&***+*=*-*;*>*,*'*Q&)*!*~*{*                    ",
"#$c%;%d%G$8$6$7#.#w@]*^*/*(*_*:*<*[*}*|*1*2*3*4*5*5*6*7*8*9*0*a*b*c*d*e*f*g*h*i*                    ",
"#$c%;%d%G$8$6$7#.#w@j*k*l*m*n*o*p*q*r*s*t*u*u*u*v*t*t*t*w*w*x*y*z*A*B*C*D*E*F*G*                    ",
"=%7$-%-%>%,%A#9#.#v@3@. + +                                                                         ",
"9$H*>%F$7$U&I*6#0$v@3@. + +                                                                         ",
"6$$$H*E$,%D$J*0#0$v@}@. + .                                                                         ",
"y#K*%$=%D$B#7#L*x@2@}@. . .                                                                         ",
"9#J*B#B#J*7#M*.#E#|@}@  . .                                                                         ",
"L*0#9#9#N*5#.#x@v@|@                                                                                ",
" #.#D#D#.#0$x@a#|@3@                                                                                ",
"v@w@w@E#w@v@2@|@3@}@                                                                                ",
"3@|@|@|@|@3@3@}@                                                                                    ",
"                                                                                                    ",
". . + + + . .                                                                                       "};
