/* XPM */
static char * floor_xpm[] = {
"50 50 3 1",
" 	c #4D9262",
".	c #7AB055",
"+	c #3E734E",
"                              .                   ",
"                              ..                  ",
"                   .          ..  .               ",
"                   .           .+..               ",
"                   . .         +..+               ",
"                   . .          ++                ",
"                     .                            ",
"  .                                               ",
"  .                                               ",
". .                                               ",
". .                                               ",
".                                                 ",
"                                                  ",
"                                                  ",
"                                                  ",
"                                                  ",
"                                   +              ",
"                                  + +             ",
"                                   +              ",
"                                                  ",
"    +                                             ",
"   + +                        .                   ",
"    +                         ..                  ",
"                   .          ..  .               ",
"                   .           .+..               ",
"         .         . .         +..+               ",
"        ..         . .          ++                ",
"     .  ..           .                            ",
"     ..+.                                         ",
"     +..+                                         ",
"      ++     .                               .    ",
"              .                             . .   ",
"             .                               .    ",
"                                                  ",
"                                                  ",
"                                                  ",
"                       +                          ",
"   .                  + +                         ",
"   .                   +                          ",
" . .                                  .           ",
" . .                                . .           ",
" .                                  . .           ",
"                                    .             ",
"                                                  ",
"                          .                       ",
"                         . .                      ",
"                          .                       ",
"                                                  ",
"                      +                           ",
"                     + +                          "};
