/* XPM */
static char * wall_xpm[] = {
"50 50 355 2",
"  	c #7D6B5A",
". 	c #565552",
"+ 	c #595653",
"@ 	c #595652",
"# 	c #585551",
"$ 	c #4F4C49",
"% 	c #484543",
"& 	c #54514D",
"* 	c #5A5753",
"= 	c #5F5E5C",
"- 	c #686968",
"; 	c #696B6B",
"> 	c #656564",
", 	c #5B5956",
"' 	c #807061",
") 	c #5D5E5D",
"! 	c #61605E",
"~ 	c #5E5C5A",
"{ 	c #595753",
"] 	c #595551",
"^ 	c #56534F",
"/ 	c #514E4B",
"( 	c #504D49",
"_ 	c #504D4A",
": 	c #4E4B48",
"< 	c #5C5A58",
"[ 	c #605F5D",
"} 	c #646261",
"| 	c #6C686B",
"1 	c #6F6B6E",
"2 	c #6F6A6E",
"3 	c #6E6A6D",
"4 	c #676565",
"5 	c #636362",
"6 	c #696A6A",
"7 	c #646463",
"8 	c #5D5B58",
"9 	c #86786D",
"0 	c #696A6C",
"a 	c #696969",
"b 	c #686969",
"c 	c #5C5956",
"d 	c #575451",
"e 	c #4B4845",
"f 	c #454240",
"g 	c #45423F",
"h 	c #474442",
"i 	c #6A6B6B",
"j 	c #6C6C6E",
"k 	c #6D6C6E",
"l 	c #6C6C6D",
"m 	c #727074",
"n 	c #7F7A82",
"o 	c #837D86",
"p 	c #837D85",
"q 	c #827C85",
"r 	c #78747A",
"s 	c #6D6D6E",
"t 	c #6D6D6F",
"u 	c #6E6D6F",
"v 	c #686868",
"w 	c #5F5D5A",
"x 	c #636261",
"y 	c #8D7E7A",
"z 	c #747378",
"A 	c #6A6B6C",
"B 	c #656665",
"C 	c #61605F",
"D 	c #565350",
"E 	c #4A4744",
"F 	c #474441",
"G 	c #514E4A",
"H 	c #5C5B59",
"I 	c #717073",
"J 	c #7C787F",
"K 	c #7E7980",
"L 	c #7D7980",
"M 	c #857E88",
"N 	c #847E87",
"O 	c #847E88",
"P 	c #817C84",
"Q 	c #777479",
"R 	c #696868",
"S 	c #666767",
"T 	c #6E6E70",
"U 	c #7A777D",
"V 	c #7E7981",
"W 	c #8E807F",
"X 	c #7D7981",
"Y 	c #747276",
"Z 	c #524F4B",
"` 	c #5C5B58",
" .	c #656463",
"..	c #857F88",
"+.	c #807B83",
"@.	c #767478",
"#.	c #706F71",
"$.	c #8B7E7E",
"%.	c #837E87",
"&.	c #807B82",
"*.	c #727073",
"=.	c #585450",
"-.	c #827D85",
";.	c #767378",
">.	c #727174",
",.	c #8B7D7E",
"'.	c #847F88",
").	c #827C84",
"!.	c #666766",
"~.	c #7F7A81",
"{.	c #847F89",
"].	c #656565",
"^.	c #55524E",
"/.	c #575552",
"(.	c #61615F",
"_.	c #676867",
":.	c #717072",
"<.	c #7C787E",
"[.	c #837E86",
"}.	c #8A7D7D",
"|.	c #827D87",
"1.	c #5A5854",
"2.	c #565451",
"3.	c #6B6B6C",
"4.	c #79767B",
"5.	c #847872",
"6.	c #757378",
"7.	c #464341",
"8.	c #44413F",
"9.	c #565452",
"0.	c #79767C",
"a.	c #636260",
"b.	c #6D6B6D",
"c.	c #7F7165",
"d.	c #636565",
"e.	c #666665",
"f.	c #605F5E",
"g.	c #575450",
"h.	c #4B4846",
"i.	c #494643",
"j.	c #79747A",
"k.	c #7C767D",
"l.	c #6C6A6C",
"m.	c #6F6F71",
"n.	c #7E7A81",
"o.	c #7C777E",
"p.	c #7D6C5C",
"q.	c #595856",
"r.	c #5C5A57",
"s.	c #4B4946",
"t.	c #53504D",
"u.	c #5C5A56",
"v.	c #5E5B59",
"w.	c #615E5D",
"x.	c #625E5E",
"y.	c #5B5855",
"z.	c #6A6A6B",
"A.	c #6E6E6F",
"B.	c #6C6B6D",
"C.	c #666363",
"D.	c #625E5D",
"E.	c #796757",
"F.	c #54534F",
"G.	c #585550",
"H.	c #54514C",
"I.	c #5A5856",
"J.	c #5D5C59",
"K.	c #57544F",
"L.	c #595651",
"M.	c #5E5D5A",
"N.	c #605F5C",
"O.	c #7A6A5F",
"P.	c #605D5E",
"Q.	c #635F5F",
"R.	c #696869",
"S.	c #6A6869",
"T.	c #63605F",
"U.	c #615D5C",
"V.	c #54524F",
"W.	c #5B5955",
"X.	c #5A5754",
"Y.	c #5F5C5A",
"Z.	c #867876",
"`.	c #7B767E",
" +	c #7D7880",
".+	c #777378",
"++	c #6A696A",
"@+	c #5F5E5D",
"#+	c #565450",
"$+	c #4C4846",
"%+	c #626260",
"&+	c #666666",
"*+	c #5E5C59",
"=+	c #716E72",
"-+	c #7B767C",
";+	c #8B7E7F",
">+	c #78757B",
",+	c #757377",
"'+	c #737073",
")+	c #6D696C",
"!+	c #646262",
"~+	c #5F5F5C",
"{+	c #4A4745",
"]+	c #555350",
"^+	c #626160",
"/+	c #706E71",
"(+	c #6A6A6A",
"_+	c #8A7D7E",
":+	c #837E88",
"<+	c #737175",
"[+	c #5A5855",
"}+	c #6F6D70",
"|+	c #6B6C6C",
"1+	c #7F7B82",
"2+	c #6B6C6D",
"3+	c #7D797F",
"4+	c #7B777E",
"5+	c #6F6E71",
"6+	c #7B777D",
"7+	c #757277",
"8+	c #737174",
"9+	c #77757A",
"0+	c #646362",
"a+	c #5B5957",
"b+	c #504D4B",
"c+	c #524F4C",
"d+	c #676766",
"e+	c #8D7E7B",
"f+	c #7C7981",
"g+	c #676767",
"h+	c #716F72",
"i+	c #636361",
"j+	c #7D787F",
"k+	c #87786D",
"l+	c #6A6B6E",
"m+	c #817B83",
"n+	c #706F72",
"o+	c #69696A",
"p+	c #605D5C",
"q+	c #5C5957",
"r+	c #504E4B",
"s+	c #585552",
"t+	c #666464",
"u+	c #706B6F",
"v+	c #6C686A",
"w+	c #636160",
"x+	c #60605D",
"y+	c #686566",
"z+	c #666364",
"A+	c #60605E",
"B+	c #5F5D5B",
"C+	c #595855",
"D+	c #4C4946",
"E+	c #57534F",
"F+	c #53504C",
"G+	c #4D4A47",
"H+	c #7D6B59",
"I+	c #55524F",
"J+	c #55534F",
"K+	c #52504C",
"L+	c #484542",
"M+	c #4F4D4A",
"N+	c #555351",
"O+	c #4C4A49",
"P+	c #494744",
"Q+	c #585652",
"R+	c #60605F",
"S+	c #585654",
"T+	c #5E5D5B",
"U+	c #54514F",
"V+	c #423F3D",
"W+	c #44413E",
"X+	c #6F6B6F",
"Y+	c #726E72",
"Z+	c #737275",
"`+	c #676868",
" @	c #6B6C6E",
".@	c #6B6A6B",
"+@	c #615F5E",
"@@	c #78757A",
"#@	c #5D5B59",
"$@	c #7A767C",
"%@	c #696A6B",
"&@	c #8C7E7E",
"*@	c #908180",
"=@	c #7B787E",
"-@	c #6F6E70",
";@	c #8F807E",
">@	c #827D86",
",@	c #6C6B6C",
"'@	c #837772",
")@	c #6F6D6F",
"!@	c #5B5A58",
"~@	c #626261",
"{@	c #847E86",
"]@	c #766B62",
"^@	c #646565",
"/@	c #7E7880",
"(@	c #7B767D",
"_@	c #6F6357",
":@	c #5A5956",
"<@	c #686667",
"[@	c #676566",
"}@	c #6E6053",
"|@	c #62615F",
"1@	c #706357",
"2@	c #52504D",
"3@	c #766C62",
"4@	c #6F6C6F",
"5@	c #7A757B",
"6@	c #575350",
"7@	c #494543",
"8@	c #54514E",
"9@	c #817571",
"0@	c #686A69",
"a@	c #747175",
"b@	c #464340",
"c@	c #726F72",
"d@	c #585653",
"e@	c #79757B",
"f@	c #595755",
"g@	c #8D7F7B",
"h@	c #595754",
"i@	c #816F61",
"j@	c #5D5C5D",
"k@	c #605E5D",
"l@	c #625F5F",
"m@	c #777379",
"n@	c #6D6A6D",
"o@	c #615E5E",
"p@	c #595554",
"q@	c #4D4846",
"r@	c #453F3F",
"s@	c #484241",
"t@	c #4F4A48",
"u@	c #504B49",
"v@	c #4F4948",
"w@	c #595555",
"x@	c #605D5D",
"y@	c #7C745C",
"z@	c #536555",
"A@	c #576656",
"B@	c #586757",
"C@	c #606F62",
"D@	c #657469",
"E@	c #647469",
"F@	c #5F6E61",
"G@	c #506050",
"H@	c #465948",
"I@	c #455847",
"J@	c #4C5E4D",
"K@	c #556554",
"L@	c #526251",
"M@	c #495B4A",
"N@	c #576856",
"  . + + @ @ @ @ @ @ @ # $ % & * + + + + + * * * * * * * * * * * * * * + + + + @ = - ; > , @ + + + + ",
"' ) ! ! ~ { ] ^ / ( _ ( : / < ! [ [ [ [ [ } | 1 2 2 2 2 2 2 2 2 2 3 4 [ [ [ [ [ 5 - 6 7 , 8 [ [ [ [ ",
"9 0 a b 7 8 c d e f g h / < > i j k k k l m n o p p p p p p p p o q r s k k k k s t u v w x 6 l s k ",
"y z A 6 v B > C D E F G H > b I J K K K L n o M N N N N N N N N O N P K K K K K K L K Q R S T U V K ",
"W X Y j 6 6 ; B , Z / `  .6 6 Y p ..N N N N N N N N N N N N N N N N N N N N N N N N M +.@.s #.+...N ",
"$.%.&.*.6 6 6 > , =., > 6 6 6 Y -.N N N N N N N N N N N N o -.o N N N N N N N N N N N N P ;.>.+.N N ",
",.'.).>.6 6 6 > c ] 8 !.i 6 6 Y -.O N N N N N N N N N N N ~.@.L N N N N N N N N N N N N N n K -.N N ",
"$.{.).>.6 6 ; ].c ^./.(._.6 6 :.<.q N N N N N N N N N [.n ;.t U N N N N N N N N N N N N N N N N N N ",
"}.|.+.*.b b b 7 1.: e 2.C v b 6 T <.o N N N N N N o o +.Y i 3.4.o N N N N N N N N N N N N N N N N N ",
"5.6.Y t !.C [ < _ 7.8.e 9.= [ 5 6 I U o ........-.0.6.Y s B a.b.0.-...N N N O ......................",
"c.d.e.e.f.d g.^.h.% i.i.G # @ ~ > B b.j.k.k.k.k.r l.B e.e.(.c x m.<.~.n.n.n.V o.k.k.k.k.k.k.k.k.k.k.",
"p.q.r.r.D s.t.@ g.D D D # + { 1.u.r.v.w.x.x.x.x.w.8 , , r.y.1.x z.s u u u A.B.C.D.x.x.x.x.x.x.x.x.x.",
"E.F.g.G.H.( I.! ! ! ! ! ! ! ! J.# g.g.K.K.K.g.g.G.# & ( ^.L.* M.(.(.! ! ! (.N.1.g.g.G.G.G.G.g.g.K.K.",
"O.P.x.x.D.Q.R.u u u u u u u u S.T.D.x.x.x.U.8 u.r.u.V.e & @ @ @ @ g.D D D # * W.r.c X.@ @ y.u.r.Y.x.",
"Z.`.k.k.k.k. +n.n.n.n.n.n.n.n. +k.k.k.k.k..+++B e.e.@+#+d @ @ @ ^.$+% i.i._ 1.%+&+> *+@ * f.B &+=+-+",
";+'.........M N N N N N N N N M ..........P >+,+;.;.'+)+!+~+[ [ < _ F 8.{+]+^+/+>.(+5 N.! b.,+@.L N ",
"_+:+N N N N N N N N N N N N N N N N N N N N o o o o o &.<+i a b 7 [+: e 2.^+}+L U |+b 6 k 0.-.o o N ",
"_+:+N N N N N N N N N N N N N N N N N N N N N N O N M N 1+Q 2+6 B c ^.d ^+/+3+o 4+|+b 5+6+P N N N N ",
"_+:+N N N N N N N N N N N N N N N N N N N N N +.L -.N N ..J l 6 B u.] r.!.Q o N n.7+8+>+-.N N N N N ",
"$.:+N N N N N N N N N N N N N N N N N N N N -.9+:.L [.N o 6+l b 7 [+=.r.&+@.o N o q q -.N N N N N N ",
"W O N N N N N N N N N N N N N N N N N N ..P Q T |+*.<.-.U I z.0+a+b+c+r.d+Q o ..M ......N N N N N N ",
"e+f+K K +.N ..o ~.L K K P N O O N +.K K V 0.s g+e.b h+.+b.> 7 a+$ 7.$ , i+h+j+K K K K K K K K K K K ",
"k+l+k k 7+m+o L n+l k s Q ).o o m+7+k k s l o+^+M.].> p+q+, [+r+7.f $ s+y.x l s k k k k k k k k k k ",
"' ) [ [ t+3 u+v+w+[ x+! y+1 u+u+3 z+[ [ [ x+A+8 1.B+C+: D+/ E+F+$ $ : G+G+9.= x+[ [ [ [ [ [ [ [ [ [ ",
"H+9.@ #+I+^ D ^ I+I+I+J+^ D D d + + @ @ @ @ @ @ @ @ K+i.L+M+[+r.r.r.N+O+P+_ Q+@ @ @ @ @ @ @ @ @ @ @ ",
"H+. d : L+L+L+L+% % L+L+L+L+L+$ # @ @ @ @ @ @ * * * s+D ^ < > g+d+&+].R+S+g.@ @ @ @ @ @ @ @ @ @ @ @ ",
"' ) T+U+G+G+G+G+G+h V+V+V+W+E N+= ! [ [ [ [ A+y+2 X+1 u+u+Y+;.Q Z+|+6 `+%+[ [ [ [ [ [ [ [ [ [ [ [ [ ",
"k+ @.@+@[+y.y.W.[+/ 7.8.8.E D [ v 2+k k k k t @@q o p p p o o [.K I s t s k k k k k k k k k k k k k ",
"e+X 6+k > > > ].> #@/ F E D C d+3.Q K K K K K P N O N N N N N N p n.L L K K K K K K K K K K K K K K ",
"W O o $@n+i 6 %@6 C g.$ N+f.g+t ,+n M ......N N N N N N N N N N N N N O ..................M N N N N ",
"&@:+N o 4+A.z.6 b ! @ # = `+6 <+m+N [.-.q -.N N N N N N N N N N N N N N -.q q q q q q q q o N N N N ",
"W :+N N q <.h+6 a ! { @ ! 6 6 Y o ..1+,+>.Q P N N N N N N N N N N N N P Q >.<+<+<+<+<+8+Y 3+N N N N ",
"*@:+N N -.J I b > < ^.# w > b I =@L Q l t Q P ..N N N N N N N N N N N P ;.*.:.|+b 6 -@*.<+j+N N N N ",
";@>@o o o.u 6 > r.M+{+^.{ 8 > z.,@l 3.3.Q +.-.o o o o o o o o o o N N [.q ).n.*.i s $@P P o N N o o ",
"'@z ;.;.)@^+[ !@M+7.8.e F+* M.[ ~+= ~@6 I ;.;.;.;.;.;.;.;.;.;.,+$@p ..M ....{@L $@6+P ........N L @.",
"]@^@e.e.f.d g.I+D+% i.i.: ^.# @ @ @ 8 7 e.e.e.e.e.e.e.e.e.e.e.B l.j./@n.n.n.n.n.n.n.n.n.n.j+k.(@h+d+",
"_@:@r.r.]+s.F+# ^ ^ D D _ h.^.@ @ @ * c r.r.r.r.r.r.r.r.r.r.r.u.8 w.<@u u u u u u u u u s [@x.w.Y.r.",
"}@2.# # ^.( ^.@ @ *+|@|@C+G ^ # G.G.G.g.g.G.# # # # # # # # # # ^.( S+A+! ! ! ! ! ! ! ! [ . G+G+F+G.",
"1@:@r.r.u., X.* r.i+b b x r.c v.D.x.x.x.x.U.8 u.r.r.r.r.r.r.r.r./.D+/ @ { # D D D #+s+* @ _ L+% 2@, ",
"3@^@e.e.e.> ~ 8 7 v 6 6 v e.e.4@5@k.k.k.k..+++B e.e.e.e.e.e.e.&+^+s+6@@ @ c+E 7@% {+& @ @ D 8@I+~ > ",
"9@6.;.;.I 6 5 ~@`+0@|+<+;.;.;.=@N ........P >+,+;.;.;.;.;.;.;.;.a@1 t+[ N.S+D+g b@: I.[ [ N.w+v+c@,+",
"}.>@o o <.-@6 6 l l I ~.o o o o N N N N N N o o o o o o o o o o o P Q l a ~@d@D+D+Q+i+b b z.I V o o ",
"$.O N N q <.n+-@$@j+n.o N N N N N N N N N N N N N N N N N N N N N N P $@u _.x S+^.1.7 6 i 7+n.o M N ",
",.:+N N N o $@@@q M N N N N N N N N N N N N N N N N N N N N N N N N +.e@t 6 _.~ L.y.7 6 3.$@N N N N ",
"$.:+N N N N p -.N N N N N N N N N N N N N N N N N N N N N N N o -.).Q l 6 6 _.~ # { ~@b i @@-.N N N ",
"W O N N N N N N N N N N N N N N N N N N N N N N N N N N N M [.6+Y Y T 6 6 %@`+M.& M+f@x a m.@@q ..N ",
"g@f+K K L n.q N N N N N P K L K K K K K K K K K K K K K K K J *.6 6 6 6 6 v 5 h@G+7.G+f@5 `+A.U V K ",
"k+l+k k l -@6+o o o o o $@u k k k k k k k k k k k k k k k k k i b b b b b i+h@G+f g 7.: h@i+6 l s k ",
"i@j@k@k@p+l@X+m@m@m@m@.+n@+@p+k@k@k@k@k@k@k@k@k@k@k@k@k@k@k@k@w.o@o@o@o@w.p@q@r@s@t@u@v@t@w@w.k@k@x@",
"y@z@A@A@A@B@C@D@D@D@D@E@F@B@A@A@A@A@A@A@A@A@A@A@A@A@A@A@A@A@A@A@A@A@A@A@A@G@H@I@J@K@A@L@M@G@A@A@A@N@"};
